<?xml version="1.0" standalone="no"?>
<!DOCTYPE svg PUBLIC "-//W3C//DTD SVG 20010904//EN"
 "http://www.w3.org/TR/2001/REC-SVG-20010904/DTD/svg10.dtd">
<svg version="1.0" xmlns="http://www.w3.org/2000/svg"
 width="1334.000000pt" height="1340.000000pt" viewBox="0 0 1334.000000 1340.000000"
 preserveAspectRatio="xMidYMid meet">

<g transform="translate(0.000000,1340.000000) scale(0.100000,-0.100000)"
fill="#000000" stroke="none">
<path d="M6950 13030 c-8 -5 -100 -37 -205 -71 -104 -34 -257 -91 -338 -126
-157 -67 -208 -101 -307 -206 -117 -124 -165 -140 -364 -117 -85 10 -137 10
-216 2 -175 -18 -365 -61 -465 -107 -27 -12 -66 -26 -85 -29 -41 -9 -266 -83
-295 -99 -11 -5 -60 -35 -110 -67 -49 -31 -119 -74 -155 -95 -111 -65 -251
-175 -345 -269 -49 -50 -136 -136 -192 -191 -57 -55 -103 -102 -103 -105 0 -4
-31 -39 -70 -78 -53 -56 -82 -97 -121 -175 -93 -188 -164 -307 -222 -376 -16
-19 -37 -52 -47 -75 -9 -23 -31 -63 -48 -90 -17 -27 -39 -72 -48 -100 -9 -28
-50 -121 -91 -206 -103 -216 -112 -239 -128 -320 -4 -19 -35 -93 -70 -165 -82
-167 -141 -315 -161 -402 -8 -37 -20 -86 -25 -108 -6 -22 -16 -83 -24 -135 -8
-52 -27 -140 -44 -195 -16 -55 -34 -126 -41 -159 -7 -32 -21 -83 -31 -114 -10
-30 -19 -68 -19 -83 0 -86 -162 -465 -260 -609 -23 -34 -50 -81 -61 -104 -10
-24 -25 -49 -34 -56 -37 -30 -83 -138 -105 -245 -12 -60 -31 -132 -41 -159
-11 -27 -19 -56 -19 -66 0 -9 -9 -54 -21 -100 -20 -82 -19 -119 1 -64 31 82
45 104 72 113 26 9 29 15 28 53 -2 56 22 150 38 156 19 6 6 -188 -14 -204 -15
-12 -36 -103 -27 -117 8 -13 23 3 23 26 0 12 4 28 9 36 20 31 38 -7 45 -92 3
-45 18 -122 32 -172 15 -54 29 -134 34 -200 12 -167 25 -234 51 -258 39 -36
52 -85 57 -212 2 -66 8 -124 12 -130 4 -5 13 -55 20 -110 22 -181 44 -327 66
-425 9 -41 20 -131 25 -200 14 -202 34 -383 46 -405 27 -52 79 -347 94 -535
10 -138 15 -732 5 -748 -11 -18 -38 -211 -47 -337 -16 -228 -45 -404 -74 -449
-7 -12 -21 -48 -30 -81 -28 -100 -85 -252 -141 -370 -7 -16 -33 -78 -58 -137
-38 -94 -53 -118 -122 -193 -83 -91 -312 -293 -405 -358 -29 -21 -70 -49 -89
-62 -19 -14 -55 -35 -80 -46 -25 -12 -58 -32 -75 -44 -16 -12 -50 -31 -75 -42
-53 -24 -83 -55 -104 -103 -16 -37 -94 -123 -139 -153 -15 -10 -32 -27 -38
-39 -10 -18 -9 -20 6 -15 9 4 42 10 73 13 69 8 62 -3 -23 -36 -33 -13 -69 -31
-80 -40 -11 -10 -30 -23 -43 -29 -12 -7 -21 -20 -20 -29 2 -9 -5 -18 -15 -20
-15 -3 -18 0 -12 17 4 15 2 21 -9 21 -19 0 -78 -49 -71 -60 3 -5 27 -7 53 -5
282 22 392 35 425 49 47 21 126 36 132 26 6 -10 -41 -49 -73 -61 -77 -29 -105
-49 -67 -49 10 0 15 -10 15 -34 0 -35 -12 -46 -54 -46 -22 0 -46 -17 -46 -32
0 -13 28 -9 53 6 12 7 49 16 83 19 33 4 69 9 78 13 14 5 17 3 14 -12 -2 -11
-17 -24 -38 -30 -23 -8 -37 -19 -40 -35 -4 -17 -14 -25 -30 -26 -82 -6 -213
-33 -247 -51 -12 -7 -39 -12 -60 -13 -33 0 -35 -2 -15 -9 12 -5 22 -16 22 -23
0 -25 25 -37 85 -42 37 -3 65 1 79 9 12 8 42 12 71 10 28 -2 54 -3 58 -3 5 -1
5 -6 1 -12 -4 -7 -24 -9 -54 -6 -36 4 -58 1 -86 -14 -21 -10 -50 -19 -64 -19
-14 0 -35 -6 -46 -14 -18 -14 -18 -15 -1 -22 10 -3 38 -4 63 -1 24 2 47 1 50
-4 3 -5 15 -9 27 -9 25 -1 57 -22 57 -39 0 -6 -6 -11 -14 -11 -8 0 -16 -7 -20
-15 -7 -19 -52 -38 -86 -37 -14 1 -40 -12 -60 -28 -21 -19 -28 -30 -19 -30 9
0 24 9 34 20 20 22 45 26 62 9 9 -9 23 -9 57 0 25 6 56 11 70 11 14 0 26 4 26
9 0 12 29 23 41 15 14 -8 -9 -34 -31 -34 -18 0 -80 -54 -80 -69 0 -21 62 -28
102 -12 13 5 32 12 42 15 19 6 19 7 0 21 -18 13 -18 14 0 21 16 6 28 -2 38
-28 5 -12 43 -11 86 2 39 12 44 12 65 -8 13 -12 33 -22 45 -22 24 0 39 -17 25
-31 -5 -5 -41 -16 -79 -24 -114 -23 -145 -32 -163 -49 -10 -9 -25 -16 -34 -16
-17 0 -22 -11 -11 -22 3 -4 20 -2 37 4 18 5 68 11 112 13 44 2 105 9 135 15
111 21 130 23 130 12 0 -5 -7 -13 -16 -16 -8 -3 -14 -14 -12 -23 2 -10 -5 -22
-16 -28 -10 -5 -24 -19 -30 -29 -6 -11 -19 -28 -28 -38 -21 -21 -24 -48 -5
-48 6 0 28 4 47 9 65 17 130 23 130 12 0 -6 -18 -22 -41 -37 -27 -17 -39 -30
-35 -40 3 -9 1 -12 -4 -9 -5 3 -15 -7 -22 -22 -15 -34 -26 -43 -55 -43 -13 0
-44 -16 -70 -36 -64 -48 -64 -48 -19 -41 22 4 44 13 48 21 5 8 15 13 23 9 16
-6 80 21 90 37 3 6 26 10 49 10 24 0 60 7 79 15 20 8 43 15 52 15 18 0 20 -19
3 -24 -72 -20 -101 -32 -111 -45 -22 -30 -92 -68 -157 -86 -36 -10 -72 -24
-80 -30 -16 -13 -63 -31 -95 -38 -11 -2 12 -4 50 -4 39 0 78 3 87 8 9 5 23 6
32 3 12 -5 10 -10 -11 -30 -20 -19 -37 -24 -77 -24 -29 0 -57 -5 -64 -12 -10
-10 -88 -16 -247 -18 -30 0 -36 -3 -25 -10 9 -6 421 -10 1113 -10 1032 0 1251
6 989 26 -53 4 -90 9 -82 12 8 2 32 21 52 40 40 38 47 35 24 -10 -9 -17 -11
-28 -5 -28 13 0 119 107 119 120 0 5 6 15 13 22 7 7 31 38 54 68 22 30 57 73
78 95 57 63 119 146 144 194 12 25 37 63 56 85 18 23 54 77 80 121 26 44 57
94 70 111 13 17 29 50 35 75 8 29 25 56 50 79 38 35 70 102 70 148 0 33 18 62
34 56 15 -6 20 5 31 70 4 22 16 57 28 78 19 32 20 41 9 58 -12 20 -15 107 -5
165 6 30 6 30 15 6 14 -38 26 -14 33 64 9 93 23 147 38 142 6 -2 14 -14 18
-28 9 -39 19 37 21 174 1 64 6 116 11 114 9 -3 24 -27 53 -87 82 -170 83 -172
100 -125 18 52 35 160 29 177 -3 8 1 46 8 83 9 42 11 80 6 97 -9 31 -4 273 12
573 7 142 7 208 0 228 -6 16 -11 50 -11 76 0 27 -7 68 -16 92 -11 32 -16 96
-19 234 -4 176 -27 390 -55 513 -6 24 -15 84 -21 135 -20 174 -38 312 -48 365
-5 29 -12 138 -15 243 -4 159 -2 191 10 196 17 6 63 -22 71 -45 3 -9 30 -43
60 -74 29 -31 53 -61 53 -66 0 -5 14 -12 30 -16 20 -3 34 -14 40 -31 5 -13 20
-27 34 -31 14 -3 28 -13 31 -22 6 -19 69 -62 90 -62 8 0 23 -13 35 -30 18 -25
28 -30 61 -30 35 0 39 -3 39 -25 0 -21 6 -26 39 -31 22 -4 42 -13 45 -20 8
-22 56 -18 56 5 0 24 -37 71 -56 71 -8 0 -14 6 -14 14 0 7 -26 33 -57 57 -32
23 -60 47 -62 51 -1 5 -21 26 -43 46 -23 20 -47 44 -54 52 -8 8 -28 31 -45 50
-38 43 -162 170 -184 188 -8 7 -15 22 -15 32 0 11 -4 20 -9 20 -20 0 -73 55
-92 95 -14 29 -29 45 -45 49 -14 4 -30 19 -37 34 -6 15 -27 43 -45 62 -19 19
-38 47 -44 63 -5 15 -14 27 -19 27 -5 0 -9 5 -9 11 0 6 -10 19 -23 29 -12 10
-33 40 -46 66 -12 27 -36 76 -53 109 -74 146 -181 533 -208 750 -7 50 -19 128
-27 175 -9 47 -18 102 -20 122 -7 54 -23 36 -21 -23 0 -28 -4 -55 -9 -60 -12
-12 -63 8 -64 25 0 6 -4 75 -7 153 -8 152 -15 173 -52 153 -17 -9 -24 -9 -33
3 -7 8 -29 18 -49 21 l-36 7 -21 -56 c-25 -66 -26 -94 -6 -109 11 -8 16 -40
18 -133 2 -68 6 -126 10 -129 4 -4 7 -18 7 -31 0 -13 11 -45 26 -70 37 -67 31
-87 -28 -91 -68 -4 -108 18 -147 82 -40 66 -55 114 -71 228 l-12 86 36 91 c20
50 36 93 36 96 0 3 -10 5 -23 5 -19 0 -26 9 -40 53 -9 30 -26 62 -37 72 -11
10 -20 23 -20 30 0 6 -11 22 -25 35 -14 13 -31 42 -37 64 -6 23 -18 48 -25 57
-10 12 -12 28 -8 53 8 42 21 46 37 11 l11 -25 25 22 24 23 23 -29 23 -29 6 59
c13 132 25 186 43 200 25 19 25 19 53 -34 20 -37 30 -46 47 -44 14 2 23 -4 28
-17 3 -11 18 -26 32 -33 14 -7 31 -22 37 -33 26 -47 75 -105 81 -96 3 6 3 44
0 86 -3 44 -2 75 4 75 8 0 16 -36 24 -108 1 -12 9 -27 17 -32 8 -5 16 -27 17
-52 6 -98 19 -185 33 -208 8 -14 17 -50 21 -80 12 -97 30 -185 40 -195 12 -12
12 0 -6 255 -17 238 -28 333 -49 430 -30 132 -48 330 -48 525 0 107 3 198 5
203 3 4 13 82 22 173 8 90 20 203 25 250 6 47 10 110 10 141 0 79 10 120 30
125 10 3 21 18 24 36 10 51 34 80 61 73 26 -7 35 12 35 76 0 20 12 65 26 100
59 141 57 139 101 144 21 2 23 0 17 -37 -5 -32 -4 -39 10 -39 12 0 16 10 16
43 0 44 33 175 55 217 7 14 21 53 30 88 10 34 23 62 30 62 16 0 55 43 55 61 0
31 29 94 44 97 10 2 16 14 16 33 0 22 5 29 20 29 21 0 24 4 34 53 7 28 24 35
43 16 9 -9 7 -20 -4 -45 -14 -29 -15 -38 -2 -76 l13 -42 8 35 c4 19 10 52 13
74 20 150 39 221 84 313 22 46 34 57 79 78 28 13 52 29 52 36 0 13 49 88 65
101 5 4 20 5 32 2 15 -4 23 0 28 14 9 30 33 47 47 33 16 -16 25 -15 32 6 10
31 41 75 55 80 11 4 13 -4 8 -33 -4 -21 -10 -41 -15 -44 -5 -3 -17 -21 -26
-39 -13 -25 -22 -32 -36 -27 -24 8 -42 -24 -34 -62 4 -22 -4 -48 -34 -104 -22
-42 -59 -130 -82 -195 -24 -65 -48 -126 -55 -134 -7 -8 -20 -41 -30 -73 -10
-31 -28 -78 -41 -104 -13 -25 -24 -55 -24 -66 0 -11 -7 -28 -16 -38 -15 -16
-15 -20 0 -41 13 -17 15 -36 10 -84 -9 -87 23 -140 40 -67 7 30 50 149 71 198
7 17 18 48 25 70 7 22 24 60 38 85 40 69 112 219 112 232 0 7 16 28 35 48 32
32 35 40 26 63 -7 17 -7 28 -1 32 6 4 10 17 10 29 0 31 23 74 49 92 14 10 21
26 21 47 1 35 64 138 90 145 12 3 12 1 2 -6 -10 -7 -11 -14 -1 -36 l12 -26 24
22 c29 27 31 68 3 68 -11 0 -20 4 -20 9 0 13 33 23 40 12 13 -23 46 1 63 47
10 26 25 58 32 72 8 14 26 48 39 77 14 28 29 54 35 57 16 10 22 -10 11 -39 -6
-15 -7 -31 -4 -36 7 -12 57 63 75 113 11 31 35 56 44 46 2 -2 0 -24 -4 -50
-13 -84 15 -51 49 57 7 22 21 46 30 52 10 7 21 25 25 40 14 57 50 74 40 20 -5
-24 -2 -37 9 -46 9 -8 16 -10 16 -6 0 4 9 -4 20 -18 20 -25 20 -28 4 -79 -9
-29 -21 -58 -26 -64 -15 -20 -52 -250 -43 -272 4 -10 15 -12 45 -7 l40 7 0
-44 c0 -23 -7 -52 -15 -62 -8 -11 -15 -14 -15 -8 0 16 -33 15 -48 0 -7 -7 -12
-28 -12 -47 l0 -35 30 34 31 35 -7 -45 c-9 -62 -21 -90 -39 -90 -11 0 -13 -7
-9 -29 4 -17 0 -41 -10 -59 -8 -16 -18 -49 -22 -72 -4 -23 -13 -44 -20 -47
-14 -5 -20 -74 -7 -86 8 -9 32 24 33 46 0 10 7 20 15 23 10 4 15 20 15 49 0
24 5 47 11 51 6 3 9 17 6 30 -3 16 0 24 9 24 8 0 14 6 14 13 0 7 9 29 20 49
10 20 22 59 26 87 4 28 11 54 15 57 5 3 9 16 9 29 0 14 7 26 19 30 23 7 38 38
85 175 59 173 64 185 78 185 10 0 12 -17 9 -75 -7 -120 -7 -133 6 -137 15 -5
30 29 74 167 52 166 97 244 120 209 13 -19 4 -218 -10 -232 -13 -13 -15 -57
-1 -57 5 0 12 16 16 35 3 20 14 41 23 48 25 18 46 76 33 89 -18 18 -3 39 19
27 11 -5 28 -7 38 -4 28 9 32 -17 16 -103 -19 -96 -19 -92 5 -92 22 0 36 36
26 68 -5 14 2 29 18 49 l26 28 -3 -89 c-1 -64 2 -90 10 -93 15 -5 33 37 33 76
0 15 7 43 16 60 9 18 19 63 21 100 3 36 11 76 19 88 8 12 14 34 14 48 0 14 4
25 10 25 5 0 9 -46 8 -107 0 -60 1 -127 2 -151 2 -37 -2 -47 -29 -71 -20 -18
-28 -32 -22 -36 6 -3 11 -14 11 -24 0 -20 22 -71 31 -71 4 0 10 7 13 16 11 28
28 3 22 -31 -5 -23 -2 -38 9 -48 8 -9 17 -34 19 -56 4 -45 18 -55 26 -20 3 12
10 24 16 26 15 5 8 -84 -10 -132 -8 -22 -15 -50 -16 -61 0 -12 -7 -35 -15 -50
-8 -16 -15 -40 -15 -53 0 -13 -13 -51 -29 -85 -40 -86 -71 -187 -71 -232 0
-20 -5 -52 -12 -70 -9 -27 -9 -37 5 -57 15 -23 15 -29 1 -62 -16 -39 -21 -118
-9 -154 9 -31 35 -26 36 7 0 15 2 72 4 128 3 115 53 337 84 379 4 5 14 44 21
85 8 48 28 107 56 166 25 50 47 108 50 130 7 50 42 140 60 155 8 6 14 21 14
33 0 12 6 31 14 42 13 17 14 13 10 -41 -5 -56 -4 -59 10 -41 9 11 16 30 16 42
0 12 7 27 15 34 8 7 15 20 16 29 0 9 4 4 9 -11 4 -15 4 -44 -1 -65 -13 -61
-10 -161 7 -167 20 -8 25 7 14 43 -7 26 -5 33 11 41 27 15 34 -8 21 -62 -8
-30 -7 -46 1 -59 21 -34 45 -18 38 25 -2 12 30 96 47 124 8 12 21 22 28 22 19
0 18 -26 -1 -34 -8 -3 -15 -14 -15 -25 0 -23 22 -41 28 -23 2 7 7 12 11 12 5
0 6 -51 3 -112 -2 -62 -4 -144 -4 -181 1 -39 -2 -65 -8 -62 -12 7 -30 -27 -30
-58 0 -30 -10 -40 -25 -27 -18 15 -41 -15 -27 -33 6 -7 9 -22 7 -33 -3 -10
-10 -57 -16 -104 -9 -78 -10 -96 -9 -155 1 -11 -2 -44 -6 -73 -5 -41 -3 -56 9
-70 9 -9 15 -32 15 -51 -1 -18 4 -36 10 -39 5 -4 13 -24 17 -45 4 -20 12 -37
17 -37 6 0 8 -14 4 -34 -4 -21 -2 -37 4 -41 24 -15 30 -55 14 -95 -14 -36 -15
-43 -1 -63 8 -12 17 -58 21 -101 4 -43 11 -87 16 -97 6 -10 10 -27 10 -38 0
-29 15 -33 41 -12 22 18 23 25 25 157 3 232 13 385 30 463 9 41 13 91 10 112
-3 20 -3 51 0 68 5 25 10 30 25 26 12 -4 21 -1 23 7 15 53 29 129 41 228 8 63
19 144 24 179 5 35 7 70 4 77 -3 7 2 23 11 36 9 12 16 34 16 48 0 33 23 107
37 121 16 16 33 2 33 -26 0 -34 18 -41 30 -10 13 34 34 22 26 -16 -4 -19 -1
-29 7 -30 6 -1 19 -2 27 -3 11 -1 15 -13 13 -50 -1 -27 -7 -52 -13 -56 -13 -8
-31 -80 -24 -92 3 -4 14 -8 25 -8 20 0 26 -15 9 -25 -5 -3 -14 -25 -20 -48 -6
-23 -16 -52 -22 -64 -7 -14 -8 -39 -3 -70 4 -26 9 -73 10 -103 3 -94 5 -100
20 -100 19 0 30 -62 16 -89 -13 -23 -42 -237 -40 -291 1 -23 3 -27 6 -12 2 12
11 22 18 22 25 0 27 -21 5 -45 -19 -20 -21 -30 -15 -62 4 -20 13 -50 21 -66
12 -22 13 -32 3 -43 -8 -10 -10 -39 -5 -97 3 -45 6 -86 6 -92 -2 -100 -7 -156
-18 -167 -32 -32 -3 -118 40 -118 8 0 25 -11 37 -24 21 -22 21 -25 5 -40 -9
-9 -14 -20 -10 -23 3 -4 12 -1 18 5 7 7 31 12 55 12 24 0 43 4 43 8 0 5 9 19
20 32 19 22 19 24 4 42 -16 17 -15 18 17 18 19 0 40 -4 47 -9 12 -7 99 9 121
23 5 3 29 7 55 7 25 1 46 7 46 12 0 6 20 7 49 3 30 -4 52 -2 56 4 11 17 46 11
64 -11 11 -14 31 -22 61 -24 178 -14 180 -15 180 -64 0 -40 20 -67 43 -58 7 2
18 31 25 63 7 33 20 65 28 73 13 11 14 15 2 22 -7 5 11 6 42 2 56 -6 76 -19
60 -38 -5 -6 -3 -20 5 -34 8 -16 10 -34 4 -53 -9 -34 -3 -58 17 -58 17 0 34
-32 34 -64 0 -29 11 -33 30 -11 8 10 10 30 6 60 -9 56 -3 68 29 53 31 -14 35
-34 20 -114 -7 -37 -10 -75 -8 -84 3 -12 -3 -19 -23 -24 -29 -8 -44 5 -44 37
0 9 -7 17 -15 17 -8 0 -15 -8 -15 -19 0 -10 -7 -24 -15 -31 -8 -7 -15 -23 -15
-36 0 -19 -5 -24 -26 -24 -19 0 -25 4 -20 15 5 13 0 15 -28 9 -22 -4 -66 2
-120 15 -47 12 -132 26 -189 32 -125 13 -224 -3 -327 -53 -163 -79 -348 -277
-325 -349 6 -18 12 -20 43 -14 87 15 145 16 218 2 103 -20 164 -26 364 -33 91
-3 180 -11 198 -17 42 -15 78 -70 56 -88 -8 -6 -33 -13 -57 -14 -23 -1 -80 -9
-127 -18 -47 -8 -116 -18 -155 -21 -38 -4 -73 -10 -78 -15 -4 -4 9 -19 30 -33
32 -21 55 -26 138 -32 229 -16 252 -16 282 -1 15 8 34 15 41 15 19 0 136 40
146 51 6 6 6 13 -2 21 -16 16 -15 63 1 75 20 17 77 23 99 12 14 -8 18 -17 14
-33 -3 -15 2 -32 16 -50 13 -15 23 -41 24 -59 1 -18 9 -70 18 -117 9 -47 16
-102 16 -122 0 -40 22 -135 39 -166 7 -14 6 -25 -5 -41 -17 -24 -15 -67 4 -64
18 4 15 -14 -4 -21 -11 -4 -15 -20 -15 -58 0 -29 -1 -71 -1 -93 0 -22 3 -54 7
-72 7 -31 -11 -93 -27 -93 -12 0 -10 -58 2 -65 6 -3 10 -12 10 -18 0 -8 -3 -7
-9 2 -7 11 -10 8 -16 -10 -4 -13 -14 -29 -21 -37 -8 -7 -14 -27 -14 -43 0 -16
-4 -29 -10 -29 -5 0 -12 -17 -15 -37 -12 -75 -28 -123 -51 -155 -13 -17 -24
-39 -24 -48 0 -8 -9 -23 -19 -32 -11 -9 -25 -36 -31 -60 -17 -63 -24 -73 -53
-76 -32 -4 -57 -36 -57 -72 0 -30 -17 -50 -41 -50 -10 0 -30 -15 -44 -34 -20
-26 -24 -41 -20 -63 19 -83 50 -110 62 -53 6 31 25 38 52 21 11 -7 12 -13 4
-23 -8 -9 -8 -29 -2 -66 7 -37 7 -58 0 -66 -6 -7 -12 -45 -12 -84 -1 -68 -3
-73 -50 -135 -26 -35 -51 -75 -54 -90 -7 -25 -29 -37 -73 -37 -16 0 -28 -11
-44 -44 -18 -37 -27 -46 -52 -48 -23 -2 -32 -9 -34 -25 -2 -12 -16 -27 -35
-37 -18 -8 -52 -33 -75 -56 -24 -22 -47 -38 -51 -36 -8 6 -41 -29 -41 -43 0
-6 -10 -13 -21 -16 -26 -9 -79 -54 -79 -68 0 -5 -29 -39 -64 -74 -35 -35 -67
-70 -70 -78 -3 -8 -12 -15 -20 -15 -8 0 -19 -14 -24 -32 -5 -18 -27 -51 -48
-74 -62 -64 -114 -128 -114 -139 0 -10 -17 -30 -101 -123 -21 -24 -46 -58 -55
-77 -8 -19 -27 -41 -40 -50 -13 -8 -24 -21 -24 -28 0 -13 -158 -176 -195 -201
-62 -42 -266 -136 -295 -136 -11 0 -20 -4 -20 -8 0 -19 -135 -50 -258 -58
-100 -7 -289 10 -340 32 -19 8 -45 14 -58 14 -13 0 -47 9 -76 19 -48 18 -86
25 -113 22 -22 -2 67 -41 94 -41 17 0 33 -4 36 -10 3 -5 25 -14 48 -20 23 -6
51 -15 62 -19 11 -5 35 -14 53 -21 17 -7 32 -16 32 -20 0 -13 39 -19 210 -35
184 -17 210 -14 210 21 0 13 4 24 9 24 5 0 11 9 14 20 6 24 45 27 53 5 4 -8
14 -15 24 -15 30 0 50 -11 50 -29 1 -40 67 -80 85 -51 13 21 135 2 135 -21 0
-5 7 -9 15 -9 19 0 19 -9 -2 -32 -15 -17 -13 -18 49 -18 49 0 69 -4 80 -17 26
-30 35 -118 28 -245 -2 -26 2 -54 9 -61 7 -9 11 -48 10 -106 -2 -86 -4 -93
-28 -111 -20 -15 -23 -22 -13 -28 16 -11 5 -42 -15 -42 -11 0 -13 -5 -7 -17
11 -26 6 -78 -10 -118 -9 -20 -16 -74 -17 -129 -2 -106 13 -143 71 -181 32
-21 70 -76 70 -101 0 -20 17 -17 40 6 16 16 28 19 54 15 22 -5 36 -2 45 8 17
22 48 9 54 -21 3 -15 1 -28 -3 -30 -5 -2 0 -20 10 -40 11 -20 20 -42 20 -48 0
-15 31 -27 40 -17 4 4 12 105 19 223 6 118 18 265 26 325 8 61 15 156 15 213
0 56 4 144 9 195 6 51 12 141 15 201 3 61 10 114 16 120 7 7 10 0 11 -20 l0
-29 11 25 c20 48 29 96 34 185 6 88 16 125 33 125 11 0 61 -87 61 -107 0 -7 6
-24 14 -36 8 -12 17 -40 21 -62 7 -39 37 -125 56 -155 5 -8 23 -42 40 -75 17
-33 37 -67 44 -75 18 -20 114 -163 144 -214 20 -37 40 -67 91 -141 54 -78 125
-167 141 -175 10 -6 19 -18 19 -26 0 -21 31 -76 51 -91 23 -17 65 -118 88
-209 65 -263 120 -426 190 -565 28 -55 66 -119 86 -143 19 -24 35 -50 35 -59
0 -22 35 -91 75 -148 18 -25 36 -57 40 -70 17 -53 57 -120 85 -141 17 -12 30
-26 30 -31 0 -5 16 -27 35 -50 19 -22 35 -48 35 -58 0 -10 9 -21 20 -24 11 -3
20 -10 20 -14 0 -5 13 -24 28 -44 15 -19 39 -56 53 -83 13 -27 27 -53 31 -59
4 -5 23 -31 43 -57 19 -26 41 -62 49 -80 7 -18 25 -46 40 -63 31 -35 95 -126
115 -163 8 -15 34 -49 58 -77 23 -27 43 -55 43 -61 0 -18 57 -90 220 -278 8
-10 56 -44 105 -77 50 -32 119 -79 155 -104 36 -25 75 -53 87 -61 12 -9 27
-14 33 -12 21 7 -28 55 -82 81 -56 28 -98 61 -98 78 0 6 12 2 28 -9 15 -10 50
-31 77 -46 l50 -28 -37 35 c-42 40 -49 62 -18 52 32 -10 23 8 -23 42 -131 98
-221 205 -196 230 8 8 7 13 0 17 -11 7 -12 6 -15 -16 -3 -30 -30 -12 -96 64
-77 87 -126 158 -165 237 -14 26 -54 92 -89 146 -36 55 -62 103 -57 108 4 4
20 3 35 -3 15 -5 38 -10 52 -10 27 0 95 -80 134 -158 44 -88 131 -208 228
-314 4 -5 45 -37 92 -73 47 -36 112 -87 145 -114 33 -26 85 -64 116 -84 31
-20 63 -42 70 -49 14 -13 64 -38 76 -38 15 0 -42 50 -70 61 -57 23 -180 120
-274 217 -78 79 -93 99 -93 126 0 36 -24 76 -45 76 -19 0 -42 43 -26 48 6 2
11 10 11 19 0 9 -6 12 -19 8 -10 -3 -24 1 -31 10 -10 12 -10 15 4 15 23 0 12
34 -21 69 -18 20 -23 33 -18 57 4 23 1 33 -10 38 -8 3 -15 10 -15 15 0 14 61
-21 74 -42 8 -13 8 -20 -4 -27 -24 -15 85 -110 127 -110 25 0 41 -10 79 -50
26 -28 49 -48 51 -46 2 2 -10 27 -28 56 -25 40 -29 54 -19 60 15 9 40 2 40
-10 0 -5 9 -12 20 -15 11 -4 26 -17 33 -30 10 -20 118 -105 132 -105 2 0 44
-29 92 -65 131 -96 132 -97 208 -144 75 -47 223 -111 256 -111 11 0 39 -10 62
-21 23 -12 84 -34 136 -49 60 -17 88 -29 78 -33 -30 -11 -18 -27 21 -27 21 0
48 7 61 16 23 16 27 16 145 -2 27 -5 37 -3 32 5 -5 8 12 11 58 11 66 0 77 5
54 28 -9 9 -9 15 0 24 9 9 12 8 12 -5 0 -10 7 -20 15 -23 8 -4 13 -10 10 -14
-5 -9 25 -23 33 -16 2 3 -3 17 -12 30 -9 14 -16 33 -16 43 0 16 7 18 43 15 23
-3 54 -13 70 -24 l27 -19 0 24 c0 15 -10 31 -25 41 -37 24 -23 46 23 35 20 -5
54 -9 76 -9 30 0 36 3 28 13 -24 28 2 37 94 33 49 -2 96 0 104 4 8 4 42 4 75
-1 146 -19 175 -21 175 -13 0 5 -26 21 -58 36 -66 31 -119 77 -101 89 6 3 24
0 40 -7 16 -8 43 -21 60 -29 17 -8 40 -15 52 -15 19 1 17 5 -17 35 -37 33 -38
35 -27 67 11 31 10 35 -20 60 -18 15 -64 40 -101 54 -57 22 -67 28 -57 40 8
10 22 12 45 8 26 -5 34 -2 44 15 13 26 33 18 25 -10 -5 -14 0 -22 21 -29 34
-13 52 1 29 23 -13 14 -14 20 -3 37 12 18 10 23 -17 45 -38 33 -68 45 -109 45
-21 0 -44 10 -66 30 -19 16 -42 29 -51 30 -9 0 -30 7 -45 15 -16 8 -46 15 -66
15 -20 0 -41 6 -45 13 -4 8 -28 17 -53 20 -50 7 -172 65 -178 85 -5 18 43 15
58 -3 10 -12 16 -13 24 -5 8 8 0 20 -29 45 -22 19 -49 37 -60 41 -11 4 -46 24
-77 45 -31 22 -61 39 -67 39 -5 0 -18 13 -27 29 -10 16 -28 34 -42 41 -38 17
-112 81 -112 96 0 8 7 14 15 14 8 0 15 5 15 10 0 6 -7 10 -16 10 -8 0 -38 10
-65 22 -44 18 -48 23 -36 36 13 13 11 18 -18 43 -18 16 -41 29 -51 29 -20 1
-105 70 -86 70 19 0 66 -24 75 -37 4 -7 16 -13 26 -13 10 0 26 -9 36 -20 10
-12 25 -18 32 -16 7 3 28 -8 46 -24 18 -16 46 -32 62 -36 l29 -7 -18 27 c-23
36 -15 43 28 22 65 -31 78 -8 15 27 -18 11 -47 30 -63 44 l-30 25 48 -7 c47
-7 48 -7 37 14 -7 11 -19 21 -28 21 -14 0 -94 63 -101 80 -1 4 10 7 25 8 89 2
117 20 53 33 -34 7 -90 54 -90 76 0 7 -11 19 -25 25 -31 14 -33 38 -2 38 28 0
42 11 42 30 0 12 11 14 50 12 65 -3 48 13 -28 27 -36 6 -73 21 -95 38 -20 16
-54 37 -74 47 -39 20 -47 31 -26 38 9 3 8 12 -5 31 -15 23 -15 28 -3 33 8 3
12 13 9 25 -4 15 -2 18 11 13 9 -3 16 -10 16 -16 0 -5 12 -8 28 -6 22 2 26 7
23 28 -4 29 -16 39 -40 33 -17 -4 -53 36 -65 73 -6 19 -2 20 61 18 38 -2 58 0
45 2 -19 5 -20 7 -8 20 10 10 44 14 120 15 112 2 160 16 120 36 -10 6 -48 13
-84 17 -36 3 -101 20 -145 37 -44 17 -100 38 -125 47 -92 31 -123 47 -137 68
-8 13 -36 31 -61 40 -26 10 -58 28 -71 42 -13 13 -47 35 -76 47 -60 27 -217
186 -290 295 -24 36 -72 105 -105 154 -59 86 -96 160 -118 236 -6 19 -24 67
-40 105 -16 39 -32 87 -36 107 -4 20 -13 50 -21 65 -8 15 -15 34 -15 41 0 8
-17 75 -39 150 -21 75 -44 166 -51 202 -13 66 -47 200 -93 365 -89 321 -120
541 -123 860 -1 110 -2 265 -3 343 -1 134 4 174 30 260 9 27 15 32 37 30 25
-3 28 2 59 97 18 55 43 131 55 170 17 52 29 73 48 82 26 13 60 66 60 95 0 9
16 61 35 116 20 55 35 112 34 128 -1 16 5 46 14 68 10 21 17 48 17 60 0 11 8
35 18 51 10 17 24 55 31 85 16 67 41 112 58 106 7 -3 17 2 22 12 20 38 52 202
62 321 6 69 14 152 18 183 5 39 4 69 -5 94 -18 52 -26 127 -15 143 14 21 41 5
41 -24 0 -15 11 -35 29 -50 15 -14 33 -44 40 -65 11 -38 41 -57 41 -26 0 18
-23 81 -54 150 -26 57 -33 96 -18 96 5 0 15 -12 22 -26 13 -23 50 -53 50 -39
0 14 -31 62 -52 81 -42 39 -204 379 -234 489 -14 55 -41 147 -59 205 -18 58
-40 141 -49 186 -8 44 -24 105 -35 135 -10 30 -24 84 -30 121 -7 38 -25 101
-41 142 -17 41 -30 81 -30 89 0 14 -23 84 -115 342 -25 72 -52 150 -60 175 -7
25 -24 75 -38 111 -13 37 -38 120 -55 186 -53 202 -232 682 -281 751 -10 15
-30 59 -45 97 -36 94 -93 206 -177 345 -38 63 -73 124 -78 135 -5 11 -51 83
-103 160 -51 77 -109 165 -127 195 -18 30 -48 71 -65 91 -17 20 -56 69 -86
109 -79 104 -419 441 -525 520 -49 37 -101 80 -115 95 -30 33 -113 96 -190
145 -30 19 -89 60 -130 90 -84 61 -92 65 -272 156 -108 55 -142 67 -235 84
-115 21 -356 28 -383 10z m-1110 -2200 c0 -5 -5 -10 -11 -10 -5 0 -7 5 -4 10
3 6 8 10 11 10 2 0 4 -4 4 -10z m865 -40 c10 -16 -16 -43 -28 -31 -11 11 -2
41 12 41 5 0 13 -5 16 -10z m-4 -97 c17 -45 -20 -137 -41 -103 -8 12 -5 52 6
108 6 30 22 28 35 -5z m359 -117 c0 -8 -4 -18 -10 -21 -5 -3 -10 3 -10 14 0
12 5 21 10 21 6 0 10 -6 10 -14z m-20 -105 c-11 -22 -20 -51 -20 -65 0 -30 -9
-56 -20 -56 -15 0 -1 88 20 122 11 18 20 42 20 53 1 18 2 18 11 3 7 -13 4 -28
-11 -57z m-1236 0 c7 -10 -22 -37 -30 -28 -9 8 3 37 15 37 5 0 12 -4 15 -9z
m854 -113 c-2 -6 -10 -14 -16 -16 -7 -2 -10 2 -6 12 7 18 28 22 22 4z m1127
-133 c3 -14 7 -37 11 -51 5 -27 18 -377 16 -446 -1 -20 3 -40 8 -43 6 -4 10
19 10 57 0 61 12 100 26 86 12 -12 25 -180 23 -298 -1 -126 15 -321 31 -360 5
-14 9 -52 7 -85 -1 -33 2 -79 6 -102 7 -36 6 -44 -8 -49 -21 -8 -29 1 -30 34
0 15 -6 27 -13 27 -7 0 -17 7 -22 15 -11 18 -14 15 -29 -37 -10 -35 -16 -43
-36 -43 -13 0 -26 -4 -30 -9 -16 -27 -85 6 -85 39 0 10 -7 23 -15 30 -18 15
-18 16 -17 -91 1 -88 -11 -116 -48 -104 -23 7 -23 8 -14 114 9 120 9 169 -1
224 -5 23 -3 42 4 51 8 9 9 41 5 98 -5 69 -4 92 10 119 9 18 19 51 22 73 4 23
12 50 19 61 16 26 24 76 33 207 6 88 12 113 30 138 18 24 20 34 12 50 -10 19
2 55 24 72 6 4 4 13 -4 23 -10 12 -10 19 -2 27 15 15 15 45 0 50 -7 3 -6 12 6
30 9 14 14 33 10 42 -7 18 13 76 27 76 5 0 11 -11 14 -25z m-215 -5 c0 -5 -8
-10 -17 -10 -15 0 -16 2 -3 10 19 12 20 12 20 0z m370 -401 c0 -17 -4 -28 -10
-24 -5 3 -10 17 -10 31 0 13 5 24 10 24 6 0 10 -14 10 -31z m-677 1 c3 -11 1
-23 -4 -26 -5 -3 -9 6 -9 20 0 31 6 34 13 6z m0 -46 c3 -4 1 -16 -4 -27 -9
-15 -13 -17 -19 -7 -14 23 5 51 23 34z m-22 -121 c-9 -17 -10 -17 -17 0 -3 10
-1 30 7 45 l13 27 4 -27 c2 -15 -1 -35 -7 -45z m-94 -5 c-3 -8 -6 -5 -6 6 -1
11 2 17 5 13 3 -3 4 -12 1 -19z m3 -141 c-3 -100 -4 -127 -9 -182 0 -8 -6 -15
-11 -15 -12 0 -7 233 5 288 13 57 18 25 15 -91z m400 98 c0 -8 -4 -15 -10 -15
-5 0 -7 7 -4 15 4 8 8 15 10 15 2 0 4 -7 4 -15z m471 -178 c0 -43 5 -90 11
-105 10 -24 25 -167 31 -281 2 -43 1 -45 -30 -52 -18 -3 -35 -4 -38 -1 -9 10
-5 216 5 252 8 29 7 37 -6 47 -14 10 -15 21 -9 55 5 24 7 76 6 116 -1 40 1 78
5 84 13 21 26 -36 25 -115z m-57 -4 c-7 -162 -13 -218 -28 -238 -20 -28 -16
302 4 333 8 12 18 22 22 22 3 0 4 -53 2 -117z m-904 35 c0 -26 -17 -14 -22 17
-4 20 -3 23 8 14 8 -6 14 -20 14 -31z m15 -97 c5 -18 -12 -71 -24 -71 -7 0
-11 60 -6 78 6 18 23 15 30 -7z m1033 -146 c-3 -28 -4 -29 -15 -10 -7 14 -9
43 -5 85 l6 65 8 -55 c5 -30 7 -68 6 -85z m42 -145 c0 -5 -4 -10 -10 -10 -5 0
-10 5 -10 10 0 6 5 10 10 10 6 0 10 -4 10 -10z m-263 -1046 c-3 -3 -12 -4 -19
-1 -8 3 -5 6 6 6 11 1 17 -2 13 -5z m367 -59 c26 -40 16 -77 -28 -99 -20 -10
-40 -15 -43 -12 -8 8 16 106 30 124 14 18 23 15 41 -13z m-4489 -550 c7 -55 7
-59 -9 -46 -12 10 -16 30 -16 75 1 74 15 58 25 -29z m-415 -189 c0 -8 -4 -18
-10 -21 -5 -3 -10 3 -10 14 0 12 5 21 10 21 6 0 10 -6 10 -14z m437 -458 c-3
-8 -6 -5 -6 6 -1 11 2 17 5 13 3 -3 4 -12 1 -19z m5251 -583 c-2 -41 -9 -80
-16 -87 -9 -9 -12 6 -12 75 0 73 3 87 16 87 14 0 16 -11 12 -75z m2062 -3890
c7 -9 11 -18 8 -20 -9 -10 -38 7 -38 21 0 18 14 18 30 -1z m30 -145 c0 -5 -6
-10 -14 -10 -8 0 -18 5 -21 10 -3 6 3 10 14 10 12 0 21 -4 21 -10z m3 -93 c-4
-6 -12 -3 -20 8 -20 28 -16 41 7 20 11 -10 17 -22 13 -28z m117 -37 c12 -8 12
-10 -4 -16 -11 -4 -24 0 -34 10 -15 15 -15 16 3 16 11 0 27 -4 35 -10z m-8840
-48 c0 -4 -12 -26 -27 -49 -75 -112 -98 -143 -110 -147 -20 -8 -15 20 7 46 19
21 48 63 75 109 25 41 55 64 55 41z m-254 -110 c-18 -16 -18 -16 -6 6 6 13 14
21 18 18 3 -4 -2 -14 -12 -24z m75 -145 c-16 -16 -26 0 -10 19 9 11 15 12 17
4 2 -6 -1 -17 -7 -23z m-200 -24 c-12 -23 -112 -111 -165 -145 -22 -14 -50
-36 -62 -47 -19 -18 -64 -41 -83 -41 -15 0 88 96 122 114 38 21 72 72 54 80
-7 3 3 3 21 0 27 -5 39 0 68 25 39 35 60 41 45 14z m9304 -3 c3 -5 2 -10 -4
-10 -5 0 -13 5 -16 10 -3 6 -2 10 4 10 5 0 13 -4 16 -10z m-9735 -95 c-7 -8
-18 -15 -24 -15 -6 0 -2 7 8 15 25 19 32 19 16 0z m-199 -111 c-4 -16 -13 -29
-19 -28 -7 1 -28 2 -47 3 -32 1 -34 3 -23 21 10 15 83 42 95 35 1 0 -1 -14 -6
-31z m-141 -49 c0 -8 -3 -15 -7 -16 -5 -1 -23 -2 -41 -4 -32 -3 -32 -2 -16 16
21 23 64 26 64 4z m660 -12 c0 -5 -16 -18 -35 -30 -19 -13 -32 -17 -29 -10 2
7 17 20 32 30 31 19 32 19 32 10z m-557 -373 c-23 -5 -55 -16 -71 -24 -30 -15
-42 -13 -42 10 0 17 22 22 95 22 59 0 59 0 18 -8z m127 -135 c-7 -8 -20 -15
-29 -15 -13 1 -13 3 3 15 26 19 42 19 26 0z m10607 -27 c-3 -8 -6 -5 -6 6 -1
11 2 17 5 13 3 -3 4 -12 1 -19z m191 -44 c-9 -9 -21 -13 -27 -10 -20 13 -11
26 16 26 25 0 26 -1 11 -16z m-2160 -493 c3 -8 -1 -12 -9 -9 -7 2 -15 10 -17
17 -3 8 1 12 9 9 7 -2 15 -10 17 -17z m1188 -2 c19 -11 42 -18 51 -15 30 9
161 -18 180 -37 17 -17 16 -18 -27 -16 -25 2 -55 9 -67 17 -12 8 -52 18 -88
22 -37 5 -74 15 -83 23 -9 9 -35 17 -57 20 -39 4 -38 4 9 5 34 1 59 -4 82 -19z
m-1132 -48 c3 -5 0 -11 -7 -14 -7 -2 -18 6 -24 19 -10 21 -9 23 7 14 11 -6 21
-14 24 -19z m-6894 -5 c0 -16 -77 -76 -97 -76 -22 0 -14 19 15 34 15 8 38 24
51 35 28 25 31 25 31 7z m6838 -5 c3 -8 -1 -12 -9 -9 -7 2 -15 10 -17 17 -3 8
1 12 9 9 7 -2 15 -10 17 -17z m-7058 -145 c0 -42 -40 -62 -68 -34 -8 8 -20 5
-47 -13 -28 -19 -34 -29 -30 -46 4 -17 1 -23 -10 -23 -9 0 -14 4 -11 9 3 5 0
11 -8 14 -18 7 -56 -3 -56 -14 0 -5 -15 -8 -32 -8 -22 1 -26 3 -13 6 11 3 35
16 55 29 19 13 38 24 42 24 4 0 29 13 57 29 44 26 69 35 109 40 6 0 12 -5 12
-13z m-1177 -53 c-7 -2 -19 -2 -25 0 -7 3 -2 5 12 5 14 0 19 -2 13 -5z m131
-30 c4 -9 2 -21 -3 -26 -15 -15 -101 -20 -141 -9 l-35 10 45 1 c25 1 61 10 80
20 44 25 46 25 54 4z m696 3 c0 -23 -17 -36 -47 -36 -22 0 -32 4 -28 11 11 17
75 38 75 25z"/>
<path d="M7732 9807 c-7 -16 -12 -42 -12 -60 0 -28 1 -30 16 -16 10 11 14 30
12 60 l-4 44 -12 -28z"/>
<path d="M7755 9160 c-10 -33 4 -62 28 -58 17 2 23 11 25 41 3 34 1 37 -22 37
-16 0 -27 -7 -31 -20z"/>
<path d="M7617 9103 c-4 -3 -7 -11 -7 -17 0 -6 5 -5 12 2 6 6 9 14 7 17 -3 3
-9 2 -12 -2z"/>
<path d="M7620 9060 c-11 -7 -11 -11 -1 -24 18 -22 31 -20 31 3 0 24 -12 32
-30 21z"/>
<path d="M7872 9050 c0 -14 2 -19 5 -12 2 6 2 18 0 25 -3 6 -5 1 -5 -13z"/>
<path d="M7831 9044 c0 -11 3 -14 6 -6 3 7 2 16 -1 19 -3 4 -6 -2 -5 -13z"/>
<path d="M5200 10191 c-5 -11 -10 -24 -10 -30 0 -17 27 -13 34 5 16 41 -4 62
-24 25z"/>
<path d="M6912 10178 c-13 -13 -16 -48 -4 -48 14 0 32 23 32 42 0 21 -11 23
-28 6z"/>
<path d="M5142 10093 c-12 -13 -22 -33 -22 -44 0 -32 37 -5 45 32 9 40 4 43
-23 12z"/>
<path d="M6896 10085 c-3 -8 -1 -15 4 -15 6 0 10 7 10 15 0 8 -2 15 -4 15 -2
0 -6 -7 -10 -15z"/>
<path d="M7456 10077 c-9 -35 -7 -40 9 -27 17 14 20 36 6 44 -5 3 -11 -4 -15
-17z"/>
<path d="M4790 10025 c0 -14 -9 -43 -20 -64 -11 -22 -22 -59 -26 -83 -4 -23
-11 -51 -16 -60 -5 -10 -6 -18 -2 -18 10 0 44 41 45 54 2 34 11 62 25 77 19
21 24 110 7 116 -8 3 -13 -5 -13 -22z"/>
<path d="M7396 9814 c-9 -24 -7 -54 4 -54 6 0 10 16 10 35 0 38 -4 44 -14 19z"/>
<path d="M7348 9647 c-22 -51 -22 -57 -4 -57 11 0 36 66 36 94 0 20 -18 0 -32
-37z"/>
<path d="M5651 9657 c-16 -20 -6 -56 10 -40 6 6 9 21 7 33 -3 21 -4 22 -17 7z"/>
<path d="M6488 9240 c2 -22 6 -40 8 -40 2 0 4 18 4 40 0 22 -3 40 -8 40 -4 0
-6 -18 -4 -40z"/>
<path d="M5565 9235 c-11 -28 -19 -36 -32 -31 -11 5 -24 -2 -39 -21 -18 -23
-24 -26 -38 -14 -13 11 -20 9 -47 -13 -38 -32 -46 -32 -61 -1 -7 15 -19 25
-33 25 -12 0 -30 6 -40 14 -16 11 -26 12 -61 1 -24 -7 -56 -22 -72 -34 -20
-14 -45 -21 -74 -21 -34 0 -50 -6 -67 -24 -12 -13 -35 -26 -51 -29 -16 -4 -31
-15 -34 -25 -7 -19 -69 -82 -83 -82 -4 0 -19 12 -34 26 l-27 25 -11 -32 c-6
-17 -11 -38 -11 -45 0 -21 35 -25 76 -8 21 9 59 19 84 23 36 5 47 12 58 34 14
29 32 36 32 12 0 -21 57 -19 100 4 19 10 51 21 71 25 40 7 55 20 60 50 4 20
69 54 69 36 0 -5 -8 -10 -17 -10 -15 -1 -15 -4 5 -20 21 -17 26 -18 64 -4 23
8 47 19 54 25 7 6 30 9 51 7 36 -3 38 -5 38 -38 0 -28 -4 -35 -20 -35 -11 0
-21 -8 -23 -18 -2 -12 3 -17 17 -17 23 0 41 -27 41 -64 0 -52 23 -75 35 -35 5
14 13 19 26 16 10 -3 22 -1 25 4 3 6 11 8 17 6 7 -2 20 3 30 11 11 10 21 12
25 7 24 -33 66 -59 99 -61 124 -7 168 -18 235 -56 63 -35 73 -38 147 -38 46 0
91 -6 108 -14 15 -7 43 -21 61 -30 45 -22 111 -21 128 2 22 28 17 61 -11 72
-19 7 -25 17 -25 41 0 27 -2 30 -15 19 -8 -7 -15 -28 -15 -46 0 -19 -5 -34
-11 -34 -8 0 -10 17 -5 55 6 55 -9 114 -33 129 -16 10 -50 -12 -72 -47 -20
-32 -20 -32 -13 -4 3 16 2 27 -4 27 -14 0 -67 51 -75 73 -3 9 -16 17 -27 17
-11 0 -32 7 -46 16 -14 9 -42 20 -62 25 -20 4 -68 15 -107 25 -38 9 -91 16
-116 15 -30 0 -51 5 -59 14 -6 8 -31 17 -55 21 -24 3 -46 12 -49 20 -3 8 -12
14 -20 14 -8 0 -16 10 -18 22 -5 35 -26 32 -43 -7z"/>
<path d="M6585 9051 c-6 -11 4 -63 14 -71 4 -3 13 -18 20 -35 l14 -30 9 26 c9
28 -4 79 -22 79 -5 0 -10 6 -10 14 0 19 -17 30 -25 17z"/>
<path d="M4670 8956 c0 -48 16 -60 40 -31 10 12 7 20 -14 46 l-26 31 0 -46z"/>
<path d="M7030 8880 c0 -11 5 -20 10 -20 6 0 10 9 10 20 0 11 -4 20 -10 20 -5
0 -10 -9 -10 -20z"/>
<path d="M4075 8800 c-7 -23 2 -43 16 -35 12 8 12 42 0 50 -5 3 -12 -4 -16
-15z"/>
<path d="M5640 8430 c-12 -8 -11 -10 8 -10 12 0 22 5 22 10 0 13 -11 13 -30 0z"/>
<path d="M5714 8425 c15 -8 33 -12 38 -9 14 9 -12 24 -42 24 l-25 0 29 -15z"/>
<path d="M5430 8410 c-41 -10 -93 -24 -115 -32 -86 -32 -155 -63 -155 -70 0
-18 92 -6 170 23 120 42 157 55 223 73 31 9 57 19 57 21 0 11 -110 2 -180 -15z"/>
<path d="M5797 8424 c-4 -5 2 -16 15 -25 22 -17 21 -18 -47 -16 -71 1 -166
-13 -265 -39 -166 -45 -323 -80 -455 -101 -41 -6 -51 -12 -53 -30 -3 -18 4
-24 35 -32 21 -6 49 -11 62 -11 13 0 60 -8 105 -19 121 -28 226 -49 274 -57
l44 -6 -15 23 c-19 31 -28 71 -19 86 4 6 19 16 34 22 32 12 36 4 45 -81 6 -56
7 -59 52 -84 32 -18 55 -24 77 -21 20 4 40 -1 55 -11 25 -18 78 -27 248 -42
63 -6 119 -14 125 -19 13 -11 161 -22 182 -14 30 11 16 80 -37 177 -103 188
-228 282 -399 302 -30 3 -59 2 -63 -2z m-29 -176 c-5 -15 -68 -24 -68 -9 0 10
21 18 53 20 11 1 17 -4 15 -11z m323 -101 c10 -7 24 -29 32 -49 14 -34 14 -37
-9 -62 -14 -14 -30 -26 -37 -26 -36 0 -48 55 -25 117 13 37 16 38 39 20z"/>
<path d="M10576 7747 c3 -10 9 -15 12 -12 3 3 0 11 -7 18 -10 9 -11 8 -5 -6z"/>
<path d="M10551 7408 c0 -78 4 -116 9 -103 12 28 12 212 0 220 -6 4 -10 -37
-9 -117z"/>
<path d="M7627 6813 c-2 -5 -4 -37 -5 -73 -1 -36 -6 -87 -12 -115 -6 -27 -13
-60 -16 -72 -6 -32 -63 -93 -85 -93 -11 0 -31 7 -45 17 -25 16 -36 22 -123 71
-27 14 -41 29 -41 42 0 11 -5 20 -11 20 -6 0 -9 7 -6 15 11 26 -14 27 -38 1
-13 -14 -32 -26 -43 -26 -23 0 -102 -60 -102 -77 0 -13 -17 -15 -126 -18 -28
-1 -65 -9 -83 -18 -41 -21 -79 -13 -91 19 -11 28 -96 85 -172 115 -72 29 -160
21 -241 -21 -63 -33 -108 -38 -127 -15 -20 25 -55 15 -55 -15 0 -18 5 -24 18
-22 9 2 43 -8 75 -21 105 -44 158 -59 194 -52 43 8 113 -10 138 -35 10 -10 38
-27 62 -38 23 -10 49 -26 57 -35 7 -10 18 -17 23 -17 5 0 24 -11 42 -25 24
-18 45 -25 78 -25 32 0 56 -7 82 -25 20 -14 43 -25 50 -25 7 0 24 -8 37 -19
24 -18 65 -27 169 -36 30 -3 59 -10 64 -15 13 -13 103 -13 111 0 8 13 45 13
98 -2 35 -9 50 -8 75 3 18 8 32 19 32 25 0 7 15 21 34 32 27 16 36 29 42 59 3
21 12 48 20 60 8 13 14 54 14 105 1 45 2 104 2 131 1 26 -7 66 -17 90 -51 120
-68 148 -78 130z"/>
<path d="M7780 6065 c-14 -26 -32 -45 -45 -47 -14 -2 -19 -9 -17 -25 5 -33
-11 -59 -82 -135 -15 -17 -27 -20 -67 -15 -27 3 -59 12 -71 19 -13 7 -45 18
-73 24 -27 6 -86 26 -130 43 -70 27 -93 31 -190 33 -86 2 -121 -2 -160 -16
-60 -23 -90 -22 -157 4 -28 11 -95 24 -147 30 -88 10 -109 8 -241 -16 -80 -14
-192 -30 -250 -35 -115 -9 -183 -22 -245 -46 -22 -9 -89 -19 -150 -22 -93 -6
-116 -11 -147 -31 -21 -14 -38 -33 -38 -42 0 -21 -19 -33 -32 -20 -6 6 -5 16
3 30 10 16 10 23 0 36 -7 8 -10 20 -6 26 6 10 -20 39 -37 40 -9 0 -24 -59 -32
-127 -5 -35 -2 -59 6 -73 17 -26 26 -25 50 5 19 25 48 34 48 16 0 -6 23 -21
51 -36 28 -14 63 -34 76 -45 14 -11 32 -20 39 -20 7 0 17 -7 22 -16 5 -9 31
-20 57 -25 27 -5 56 -16 65 -24 9 -8 36 -21 60 -30 25 -9 59 -21 75 -29 17 -7
56 -23 87 -36 32 -12 62 -28 69 -36 6 -8 17 -14 25 -14 7 0 32 -13 56 -29 26
-17 71 -34 112 -42 46 -9 77 -21 92 -36 21 -21 24 -21 32 -6 9 14 15 15 57 3
55 -15 66 -34 36 -63 -18 -19 -25 -20 -52 -10 -26 10 -35 9 -66 -9 -32 -19
-41 -20 -103 -11 -38 6 -83 18 -101 27 -41 21 -49 20 -49 -2 0 -49 170 -168
311 -217 39 -14 301 -20 427 -10 35 2 61 1 57 -4 -3 -5 18 -11 45 -13 28 -1
50 0 50 4 0 3 9 4 20 1 11 -3 37 4 58 15 31 16 41 17 55 7 9 -7 28 -10 41 -8
27 6 44 33 21 33 -17 0 -20 17 -4 22 5 2 11 12 13 23 3 23 41 35 74 23 31 -11
32 -10 32 7 0 8 13 29 30 46 22 24 36 30 55 27 17 -4 25 -1 25 9 0 8 4 12 10
8 12 -7 108 55 115 75 3 8 21 25 40 38 19 12 35 26 35 32 0 5 20 18 44 29 39
17 45 24 51 59 4 24 18 53 35 71 34 35 52 95 45 145 -4 20 -1 45 6 58 18 33
23 298 6 298 -7 0 -19 15 -25 34 -14 37 -26 50 -57 60 -17 5 -25 -3 -45 -39z
m-1626 -320 l31 -36 50 36 c65 48 101 44 154 -16 37 -43 61 -46 61 -10 0 11 9
21 23 24 12 3 42 13 67 22 63 23 102 14 166 -39 l55 -45 32 20 c87 53 117 58
171 32 35 -16 66 -69 66 -113 0 -11 3 -20 6 -20 3 0 29 20 57 46 63 56 96 58
113 4 6 -19 16 -36 22 -38 13 -4 69 24 95 49 56 52 81 1 47 -94 -27 -75 -36
-87 -65 -87 -17 0 -30 12 -49 46 -14 26 -26 53 -26 62 0 20 -35 -25 -45 -58
-11 -38 -43 -68 -92 -86 -33 -13 -47 -14 -55 -6 -18 18 -43 14 -63 -8 -16 -17
-31 -20 -110 -20 -80 0 -96 3 -120 22 -22 17 -31 19 -46 10 -24 -15 -193 -16
-222 -1 -12 6 -29 20 -38 31 -13 17 -20 18 -37 9 -55 -29 -148 5 -191 72 -22
34 -51 50 -51 28 0 -13 -57 -31 -97 -31 -27 0 -37 6 -53 33 -11 17 -20 44 -20
59 0 40 -21 78 -42 78 -10 0 -18 -7 -18 -15 0 -8 -9 -19 -19 -24 -21 -12 -34
-1 -45 37 -7 21 -5 22 47 22 41 0 58 5 71 19 39 43 127 35 170 -14z m1096
-699 c0 -3 -4 -8 -10 -11 -5 -3 -10 -1 -10 4 0 6 5 11 10 11 6 0 10 -2 10 -4z"/>
<path d="M8070 6034 c0 -14 5 -24 11 -22 6 2 10 7 10 11 -1 4 -1 14 -1 22 0 8
-4 15 -10 15 -5 0 -10 -12 -10 -26z"/>
<path d="M8085 5967 c-4 -10 -5 -21 -1 -24 10 -10 18 4 13 24 -4 17 -4 17 -12
0z"/>
<path d="M6900 3775 c0 -9 9 -15 21 -15 18 0 19 2 9 15 -7 8 -16 15 -21 15 -5
0 -9 -7 -9 -15z"/>
<path d="M6950 3751 c0 -6 11 -11 25 -11 18 0 25 -5 25 -20 0 -17 6 -20 48
-19 26 1 58 4 70 8 23 6 24 6 5 24 -24 21 -173 37 -173 18z"/>
<path d="M11192 2176 c18 -27 38 -39 95 -59 79 -28 98 -24 32 7 -23 10 -56 34
-75 52 -18 19 -43 34 -54 34 -20 0 -20 0 2 -34z"/>
<path d="M11330 2182 c0 -10 70 -45 77 -38 3 2 -13 14 -36 26 -23 11 -41 17
-41 12z"/>
<path d="M11350 1906 c0 -17 22 -26 63 -26 l31 0 -39 20 c-46 24 -55 25 -55 6z"/>
<path d="M1064 1069 c-10 -17 17 -29 40 -17 20 11 20 11 1 19 -28 11 -33 10
-41 -2z"/>
<path d="M1175 920 c-3 -5 3 -10 14 -10 12 0 21 5 21 10 0 6 -6 10 -14 10 -8
0 -18 -4 -21 -10z"/>
<path d="M10130 806 c0 -9 5 -16 10 -16 6 0 10 4 10 9 0 6 -4 13 -10 16 -5 3
-10 -1 -10 -9z"/>
<path d="M12390 741 c0 -10 36 -21 44 -14 3 3 3 10 0 14 -7 12 -44 12 -44 0z"/>
<path d="M11770 320 c0 -5 7 -10 16 -10 8 0 12 5 9 10 -3 6 -10 10 -16 10 -5
0 -9 -4 -9 -10z"/>
<path d="M10654 263 c10 -11 37 -12 30 -2 -3 5 -12 9 -21 9 -9 0 -13 -3 -9 -7z"/>
<path d="M10625 206 c16 -13 59 -34 95 -47 36 -12 81 -31 100 -41 20 -10 38
-14 43 -9 14 14 -2 31 -30 31 -21 0 -24 4 -20 23 4 18 -2 26 -40 45 -44 22
-45 22 -40 2 4 -17 2 -19 -21 -14 -15 4 -39 13 -54 20 -15 8 -35 14 -45 14
-14 0 -11 -5 12 -24z m162 -42 c-9 -9 -28 6 -21 18 4 6 10 6 17 -1 6 -6 8 -13
4 -17z"/>
<path d="M10370 90 c0 -5 19 -20 43 -32 l42 -22 -35 -9 c-19 -5 -42 -12 -50
-16 -26 -11 262 -12 293 -1 17 5 44 11 61 12 17 1 -12 5 -64 10 -168 14 -161
12 -235 49 -45 22 -55 23 -55 9z"/>
<path d="M1551 71 c-8 -5 -9 -11 -3 -15 13 -8 42 3 42 15 0 11 -21 11 -39 0z"/>
<path d="M11003 23 c-24 -2 -43 -8 -43 -14 0 -10 66 -12 122 -3 21 4 35 10 32
15 -5 9 -28 9 -111 2z"/>
<path d="M83 13 c9 -2 23 -2 30 0 6 3 -1 5 -18 5 -16 0 -22 -2 -12 -5z"/>
<path d="M13227 9 c8 -8 19 -8 40 -1 28 10 28 10 -11 11 -29 1 -37 -2 -29 -10z"/>
</g>
</svg>
